<svg width="32" height="34" fill="none" xmlns="http://www.w3.org/2000/svg"><path d="M5.837 9.337L1.648 4.924l1.828-1.926 4.188 4.414H27.35c.202 0 .4.05.58.145.18.095.336.234.456.404s.201.367.236.576c.035.21.023.424-.034.627l-3.1 10.89c-.08.28-.244.526-.466.7-.223.176-.494.27-.772.27H8.421v2.722h14.208v2.723h-15.5a1.26 1.26 0 01-.913-.399 1.4 1.4 0 01-.379-.962V9.337zm1.938 22.576a1.889 1.889 0 01-1.37-.598 2.099 2.099 0 01-.568-1.443c0-.542.204-1.061.568-1.444a1.889 1.889 0 011.37-.598 1.89 1.89 0 011.37.598 2.1 2.1 0 01.567 1.444 2.1 2.1 0 01-.567 1.443 1.889 1.889 0 01-1.37.598zm15.5 0a1.889 1.889 0 01-1.37-.598 2.099 2.099 0 01-.568-1.443c0-.542.204-1.061.568-1.444a1.889 1.889 0 011.37-.598c.514 0 1.007.215 1.37.598a2.1 2.1 0 01.567 1.444 2.1 2.1 0 01-.567 1.443 1.888 1.888 0 01-1.37.598z" fill="#fff"/></svg>