<svg width="1257" height="359" fill="none" xmlns="http://www.w3.org/2000/svg"><path d="M591.4 8.7c0-1.2-1-2.2-2.2-2.2H287.4c-1.2 0-2.2 1-2.2 2.2v81.8c0 1.2 1 2.2 2.2 2.2h102.2c1.2 0 2.2 1 2.2 2.2v254.5c0 1.2 1 2.2 2.2 2.2h88.4c1.2 0 2.2-1 2.2-2.2V95c0-1.2 1-2.2 2.2-2.2H589c1.2 0 2.2-1 2.2-2.2V8.7h.2zM318.3 349c.4 1.4-.7 2.8-2.2 2.8H222c-1 0-1.9-.7-2.2-1.7L137 9.2c-.4-1.4.7-2.8 2.2-2.8h94.2c1.1 0 1.9.7 2.2 1.7L318.3 349zM43.1 179.2c-1 0-1.9.7-2.2 1.7L.1 349c-.3 1.4.7 2.8 2.2 2.8h94.2c1 0 1.9-.7 2.2-1.7l40.9-168.2c.3-1.4-.7-2.8-2.2-2.8H43.1v.1zM938.7 349c-.3 1.4.7 2.8 2.2 2.8h94.2c1 0 1.9-.7 2.2-1.7L1120 9.2c.3-1.4-.7-2.8-2.2-2.8h-94.2c-1 0-1.9.7-2.2 1.7L938.7 349zm275.2-169.8c1 0 1.9.7 2.2 1.7l40.8 168.2c.4 1.4-.7 2.8-2.2 2.8h-94.1c-1 0-1.9-.7-2.2-1.7L1117.5 182c-.3-1.4.7-2.8 2.2-2.8h94.2zM768.4 358.4c47.5 0 93.1-18.9 126.7-52.5 33.6-33.6 52.5-79.2 52.6-126.7 0-47.6-18.9-93.2-52.5-126.8C861.6 18.9 816 0 768.4 0c-23.5 0-46.9 4.6-68.6 13.6-21.8 9-41.5 22.2-58.2 38.9-16.6 16.6-29.9 36.4-38.9 58.2-9 21.8-13.7 45.1-13.7 68.6 0 47.5 19 93.1 52.6 126.7 33.7 33.6 79.3 52.4 126.8 52.4zm0-279c13.1 0 26.1 2.6 38.2 7.6 12.1 5 23.1 12.4 32.4 21.6 9.3 9.3 16.6 20.3 21.6 32.4 5 12.1 7.6 25.1 7.5 38.2 0 26.4-10.5 51.8-29.2 70.5a99.769 99.769 0 01-70.5 29.2c-26.4 0-51.8-10.5-70.5-29.2a99.769 99.769 0 01-29.2-70.5c0-13.1 2.6-26.1 7.6-38.2 5-12.1 12.3-23.1 21.6-32.4 9.3-9.3 20.3-16.6 32.4-21.6 12.1-5 25-7.6 38.1-7.6z" fill="#ED1B2F"/></svg>