<svg width="116" height="46" fill="none" xmlns="http://www.w3.org/2000/svg"><path d="M.975 28.825V27.63c0-.373.075-.821.075-1.195 0-.373.074-.672.074-1.045.075-.373.075-.672.15-1.046.074-.373.15-.746.15-1.194.074-.598.223-1.27.373-1.867.373-1.046.672-2.166.97-3.286.598-1.942 1.42-3.734 2.39-5.451.97-1.793 2.24-3.36 3.659-4.854 1.717-1.792 3.734-3.211 5.9-4.331a22.492 22.492 0 014.853-1.867c.896-.224 1.793-.448 2.689-.598A90.58 90.58 0 0123.9.672c.448-.074.896-.074 1.344-.15.448 0 .821-.074 1.27-.074.671-.074 1.343-.074 2.015-.074h.15v30.168h-6.197V19.864H10.16v.15c-.075.522-.15 1.12-.299 1.642-.074.448-.149.97-.224 1.419-.074.299-.074.597-.074.97 0 .374-.075.747-.075 1.12 0 .3-.075.598-.075.897 0 .523-.074.97-.074 1.493 0 .598 0 1.12-.075 1.718v1.345H.9v-.449c.075-.15.075-.224.075-.224v-1.12zm10.007-12.098s.074 0 0 0h11.574V2.912h-.074c-1.046.3-2.017.747-2.987 1.27-1.42.821-2.689 1.942-3.809 3.211a19.364 19.364 0 00-2.39 3.51 25.211 25.211 0 00-1.642 3.883c-.15.523-.374 1.12-.523 1.643-.15.15-.15.224-.15.299zM92.676 2.912v27.63h-6.124V.3h2.166c.374 0 .822.074 1.195.074.299 0 .672.075.97.075.374.075.822.075 1.196.15.448.074.896.149 1.419.223 2.688.523 5.301 1.42 7.691 2.763a23.495 23.495 0 017.094 6.198 26.813 26.813 0 012.913 4.929 33.289 33.289 0 011.643 4.555c.298 1.046.522 2.166.746 3.211.075.598.224 1.12.299 1.718.075.448.149.896.149 1.344.075.373.075.747.075 1.12.075 1.195.075 2.39.075 3.585v.149h-8.289v-2.016c0-.598-.075-1.195-.075-1.793 0-.224 0-.448-.075-.672 0-.373-.074-.672-.074-1.045 0-.224-.075-.523-.075-.747 0-.224-.075-.523-.075-.747 0-.298-.074-.522-.074-.821-.075-.299-.075-.672-.15-.97-.074-.374-.074-.673-.149-1.046-.075-.598-.224-1.195-.299-1.793-.224-.896-.448-1.866-.672-2.763-.448-1.418-.896-2.837-1.568-4.181-.597-1.345-1.344-2.54-2.24-3.734-.971-1.27-2.016-2.315-3.286-3.211a14.025 14.025 0 00-4.107-2.016c-.15.074-.224.074-.299.074zm-52.57 3.435h-.15c-1.941.672-3.808 1.494-5.526 2.614-1.195.747-2.24 1.568-3.285 2.464l-.075.075V2.39c.075 0 .075-.075.15-.075l2.24-.672a36.505 36.505 0 012.762-.598c.523-.074 1.12-.224 1.643-.298l1.569-.224c.522-.075.97-.075 1.493-.15.448-.074.896-.074 1.344-.149.448 0 .896-.075 1.419-.075.448 0 .97-.074 1.419-.074C46.154.075 47.125 0 48.17 0h1.42c.522 0 1.045 0 1.642.075.374 0 .747 0 1.046.074.522 0 .97.075 1.493.075.299 0 .598.075.896.075.299 0 .523.074.822.074.224 0 .522.075.747.075h.224c.074.299 0 .672.074.97 0 .3 0 .673.075.972 0 .298.075.672 0 .97-.075 0-.15 0-.224.075-.448 0-.896.075-1.344.075-.448 0-.971.074-1.42.074-.298 0-.597.075-.97.075-.299 0-.523.075-.821.075-.224 0-.523.074-.747.074-.224 0-.448.075-.672.075-.224 0-.448.075-.598.075-.298 0-.522.074-.821.074-.299.075-.597.075-.896.15-.448.299-.822.373-1.27.448-.224 0-.373.075-.597.075v25.763h-6.198V6.498c.075 0 .075-.075.075-.15zm17.921 19.715c.523-.523 1.12-1.046 1.643-1.568.074 0 .074.074.074.149.448.597.971 1.12 1.494 1.643 1.12.97 2.464 1.568 3.883 1.867.523.074.97.15 1.494.15h.97a12.67 12.67 0 002.315-.449c2.016-.672 3.585-1.941 4.705-3.734.597-.97 1.045-2.016 1.27-3.136a9.287 9.287 0 00.223-2.016c0-.374 0-.672-.074-.971-.075-.747-.299-1.494-.523-2.166-.224-.597-.448-1.12-.822-1.643 0-.074-.074-.074-.074-.149s.075-.075.075-.15c.522-.522 1.045-.97 1.568-1.493 1.792-1.717 3.584-3.36 5.376-5.078l.15-.149c0 .075.074.075.074.15.672 1.045 1.12 2.165 1.494 3.36.224.746.373 1.418.523 2.165.074.448.149.896.149 1.344 0 .448.075.971.075 1.42 0 .522-.075.97-.075 1.493a15.417 15.417 0 01-.896 3.659c-1.27 3.51-3.809 6.422-7.02 8.214-1.27.672-2.613 1.195-4.032 1.494-.448.074-.97.15-1.419.224-.672.074-1.27.074-1.942.074-.298 0-.597 0-.97-.074-.448 0-.896-.075-1.344-.15a12.048 12.048 0 01-2.689-.746c-1.941-.747-3.659-1.867-5.227-3.286l-.448-.448c0 .075 0 0 0 0zM79.684 4.78c0 .074-.075.074 0 0-.523.522-1.12 1.045-1.643 1.567h-.075l-.075-.074c-1.269-1.643-2.837-2.763-4.853-3.36a4.229 4.229 0 00-1.345-.225c-.597-.074-1.12-.074-1.717-.074-1.718.149-3.286.672-4.63 1.717-1.792 1.344-2.987 3.137-3.51 5.302a4.69 4.69 0 00-.224 1.419c-.075.523-.075.97 0 1.494.15 1.568.598 2.987 1.344 4.256l.075.075-.075.074a608.55 608.55 0 00-7.094 6.721c-.075 0-.075-.075-.075-.075-.522-.896-.97-1.792-1.269-2.688-.299-.896-.597-1.867-.747-2.763-.074-.523-.15-.97-.15-1.493a8.439 8.439 0 010-1.942c0-.523.076-1.045.15-1.568.15-1.046.448-2.091.822-3.136 1.27-3.436 3.733-6.273 6.944-8.065A14.997 14.997 0 0165.72.373L67.064.15c.82-.074 1.642-.074 2.464-.074.373 0 .747.074 1.12.074.672.075 1.344.224 2.016.374 2.091.597 4.033 1.568 5.675 2.912.449.373.897.747 1.27 1.195 0 .075 0 .15.075.15zM59.296 42.416h1.046l-.523-1.568-.523 1.568zM36.52 40.698c-.373 0-.597.15-.82.373-.225.224-.3.523-.3.897 0 .373.075.672.3.896.223.224.447.373.82.373.374 0 .598-.15.822-.373.224-.224.299-.523.299-.896 0-.374-.075-.673-.299-.897-.15-.224-.448-.373-.822-.373z" fill="#EC1B30"/><path d="M111.42 37.04H5.455a4.494 4.494 0 00-4.48 4.48A4.494 4.494 0 005.455 46H111.42a4.493 4.493 0 004.48-4.48 4.493 4.493 0 00-4.48-4.48zm-44.656 1.717c.15.224.373.373.672.373.298 0 .522-.15.672-.373l.448.373c-.299.299-.672.523-1.12.523-.448 0-.822-.15-1.12-.523l.448-.373zM38.163 43.46c-.448.373-.97.598-1.568.598-.672 0-1.195-.224-1.568-.598-.448-.373-.672-.896-.672-1.568s.224-1.12.672-1.568c.448-.448.97-.598 1.568-.598.672 0 1.195.224 1.568.598.448.373.597.896.597 1.568s-.224 1.195-.597 1.568zm8.214.523h-1.045V42.34H43.54v1.643h-1.046v-4.182h1.046v1.568h1.717v-1.568h1.046v4.182h.074zm7.767 0h-1.046v-3.211h-1.045l-.15 1.27c-.074.373-.149.746-.224 1.045-.074.298-.224.523-.448.597-.224.075-.373.224-.523.299-.149.075-.373.075-.672.075v-.971a.678.678 0 00.523-.224c.15-.15.224-.448.299-.896l.224-2.091h3.136v4.107h-.074zm6.72 0l-.224-.598h-1.642l-.224.598h-1.195l1.568-4.182h1.344l1.568 4.182h-1.195zm8.513 0h-1.12V41.37l-1.792 2.614H65.42v-4.182h1.045v2.464l1.718-2.464h1.12v4.182h.074zm7.767 0h-1.046V42.34h-1.717v1.643h-1.046v-4.182h1.046v1.568h1.717v-1.568h1.046v4.182z" fill="#EC1B30"/></svg>