<svg width="31" height="31" fill="none" xmlns="http://www.w3.org/2000/svg"><g clip-path="url(#clip0_2209_795)" fill="#ED1B2F"><path d="M15.644 30.283c8.27 0 15-6.728 15-15 0-1.427-.2-2.834-.594-4.181a1.249 1.249 0 10-2.4.701c.327 1.12.494 2.291.494 3.48 0 6.893-5.608 12.5-12.5 12.5-6.893 0-12.5-5.607-12.5-12.5 0-6.892 5.607-12.5 12.5-12.5 2.504 0 4.914.733 6.969 2.118a1.25 1.25 0 001.398-2.073A14.907 14.907 0 0015.644.283c-8.271 0-15 6.73-15 15 0 8.272 6.729 15 15 15z"/><path d="M28.51 3.15L15.642 16.015 11.527 11.9a1.25 1.25 0 00-1.767 1.767l5 5a1.245 1.245 0 001.768 0l13.75-13.75A1.25 1.25 0 0028.51 3.15z"/></g><defs><clipPath id="clip0_2209_795"><path fill="#fff" transform="translate(.644 .283)" d="M0 0h30v30H0z"/></clipPath></defs></svg>