<svg width="17" height="17" fill="none" xmlns="http://www.w3.org/2000/svg"><g clip-path="url(#clip0_2209_762)" fill="#000"><path d="M7.04 9.96C5.417 8.338 5.051 6.715 4.968 6.065a.583.583 0 01.168-.488l1.313-1.312a.586.586 0 00.082-.726L4.441.293a.586.586 0 00-.76-.214L.325 1.66a.583.583 0 00-.322.582c.175 1.671.904 5.778 4.94 9.814 4.036 4.037 8.142 4.765 9.814 4.94a.583.583 0 00.582-.322l1.58-3.356a.586.586 0 00-.212-.758l-3.246-2.09a.586.586 0 00-.725.082l-1.313 1.313a.583.583 0 01-.488.167c-.65-.082-2.272-.449-3.895-2.072z"/><path d="M13.483 9.086a.586.586 0 01-.586-.586 4.401 4.401 0 00-4.396-4.397.586.586 0 110-1.172A5.575 5.575 0 0114.07 8.5a.586.586 0 01-.587.586z"/><path d="M16.415 9.086a.586.586 0 01-.587-.586 7.336 7.336 0 00-7.327-7.328A.586.586 0 118.5 0 8.51 8.51 0 0117 8.5a.586.586 0 01-.587.586z"/></g><defs><clipPath id="clip0_2209_762"><path fill="#fff" d="M0 0h17v17H0z"/></clipPath></defs></svg>