<svg width="280" height="178" fill="none" xmlns="http://www.w3.org/2000/svg"><path d="M268.138 151.29H14.948c-6.103 0-11.03-4.943-11.03-11.067V16.341c0-6.124 4.927-11.067 11.03-11.067h253.215c6.103 0 11.03 4.943 11.03 11.067v123.882c-.025 6.124-4.951 11.067-11.055 11.067z" fill="#000"/><path d="M17.375 139.756v35.022c0 2.828 3.407 4.255 5.417 2.238l39.388-39.523-44.805 2.263z" fill="#000"/><path d="M263.775 146.617H10.56c-6.103 0-11.03-4.943-11.03-11.067V11.668C-.47 5.544 4.458.601 10.56.601h253.215c6.103 0 11.03 4.943 11.03 11.067V135.55c0 6.099-4.951 11.067-11.03 11.067z" fill="#fff"/><path d="M12.987 135.083v35.022c0 2.828 3.407 4.255 5.417 2.238l39.413-39.523-44.83 2.263z" fill="#fff"/></svg>