<svg width="22" height="22" fill="none" xmlns="http://www.w3.org/2000/svg"><g clip-path="url(#clip0_2209_1005)" fill="#fff"><path d="M17.029 15.611h2.36c1.03 0 1.642.618 1.642 1.648v1.497c-.006 1.408-1.108 2.516-2.51 2.516-5.3.005-10.598.005-15.897 0-1.48 0-2.593-1.124-2.593-2.605V1.88C.03.906.66.277 1.634.277h9.751c.067 0 .14-.005.206.006a.5.5 0 01.434.484.505.505 0 01-.434.507c-.083.01-.167.005-.25.005H1.739c-.567 0-.706.14-.706.713v.284h9.177a.503.503 0 01.484.5.503.503 0 01-.49.496c-.067.005-.139 0-.206 0H1.033V18.66c0 .752.456 1.37 1.146 1.553.907.245 1.826-.445 1.848-1.402.011-.551 0-1.097.006-1.648.005-.93.645-1.57 1.575-1.57h10.425v-4.33c0-.066-.006-.139.005-.205a.503.503 0 01.484-.457.499.499 0 01.507.457c.006.066.006.139.006.205v4.086c-.006.083-.006.156-.006.261zm-12.49 4.653c.067.006.095.012.123.012h13.886c.824 0 1.47-.663 1.48-1.492.007-.534.007-1.069 0-1.603 0-.367-.194-.568-.561-.568H5.602c-.367 0-.562.195-.568.568 0 .4-.01.807 0 1.208.023.662-.066 1.297-.495 1.875z"/><path d="M17.407.484c-.98.98-1.925 1.96-2.91 2.894-.362.345-.524.702-.496 1.202.039.713.011 1.43.011 2.143 0 .373.195.568.562.568.84 0 1.681-.006 2.522.006a.723.723 0 00.573-.24c.996-1.007 2.004-2.003 3.005-3.005.05-.05.1-.095.15-.145.49 1.514.029 3.852-1.892 5.182a4.845 4.845 0 01-6.105-.49 4.836 4.836 0 01-.707-6.083C13.383.546 15.738-.028 17.407.484zM9.699 13.608H5.658c-.451 0-.63-.178-.63-.629v-1.792c0-.384.196-.579.574-.579h8.182c.384 0 .573.195.579.58v1.808c0 .423-.184.612-.607.612H9.7zm3.656-1.981H6.047v.974h7.308v-.974zM6.036 6.278V7.28h4.331c.066 0 .139-.006.205.006a.503.503 0 01.451.49c0 .25-.183.467-.44.5-.06.006-.122.006-.189.006H5.67c-.468 0-.64-.173-.64-.64V5.85c0-.373.195-.568.562-.568H9.8c.34 0 .568.211.562.506-.006.29-.228.49-.557.49H6.037z"/><path d="M17.702 5.504c-.64-.64-1.258-1.258-1.903-1.898.039-.044.078-.094.128-.139.801-.807 1.614-1.608 2.41-2.415.128-.134.223-.128.367-.04a4.982 4.982 0 011.62 1.648c.061.106.072.178-.022.273-.846.835-1.687 1.68-2.533 2.521-.017.023-.044.034-.067.05zm-2.655-1.068l1.82 1.82c-.562 0-1.135 0-1.703-.006-.039 0-.111-.072-.111-.105-.006-.568-.006-1.141-.006-1.71zM3.03 7.28c-.166 0-.333.006-.5 0-.29-.011-.507-.228-.501-.501 0-.273.217-.49.506-.495.323-.006.652-.006.974 0 .295.005.507.217.512.49.006.283-.211.495-.517.506H3.03zm.006 4.33c.167 0 .334-.005.501 0a.499.499 0 01.006.996c-.34.012-.68.012-1.019 0a.49.49 0 01-.484-.495c0-.267.206-.484.484-.5.162-.006.334 0 .512 0z"/></g><defs><clipPath id="clip0_2209_1005"><path fill="#fff" transform="translate(.03 .278)" d="M0 0h21v21H0z"/></clipPath></defs></svg>