<svg id="Layer_1" data-name="Layer 1" xmlns="http://www.w3.org/2000/svg" viewBox="0 0 32 32"><defs><style>.cls-1{fill:#ed1b2f;}.cls-2{fill:#fff;}</style></defs><rect class="cls-1" width="32" height="32"/><path class="cls-2" d="M19.751,7.6a.11.11,0,0,0-.107-.084H15.017a.11.11,0,0,0-.107.136L18.979,24.4a.111.111,0,0,0,.107.085h4.626a.111.111,0,0,0,.107-.137Z"/><path class="cls-2" d="M14.923,16H10.3a.111.111,0,0,0-.107.085L8.181,24.349a.11.11,0,0,0,.107.136h4.627a.11.11,0,0,0,.107-.084l2.007-8.263A.11.11,0,0,0,14.923,16Z"/></svg>